<svg width="60" height="28" viewBox="0 0 60 28" fill="none" xmlns="http://www.w3.org/2000/svg">
<path d="M0.646211 12.5099V0H2.34398V5.54009L7.65175 0H9.88565L4.54215 5.62945L10.118 12.5099H7.95556L3.38051 6.84469L2.34398 7.93484V12.5099H0.646211Z" fill="white"/>
<path d="M14.0023 12.7243C12.942 12.7243 12.1139 12.4861 11.5182 12.0095C10.9344 11.521 10.6425 10.8479 10.6425 9.99004C10.6425 9.07264 10.9463 8.37566 11.554 7.8991C12.1735 7.41062 13.0313 7.16638 14.1274 7.16638H16.5222C16.4507 6.40387 16.2481 5.83199 15.9146 5.45073C15.5929 5.05757 15.1044 4.86098 14.4491 4.86098C13.9845 4.86098 13.5794 4.9563 13.2339 5.14692C12.9003 5.33755 12.6203 5.6354 12.3939 6.04049L10.8927 5.46861C11.1072 5.06352 11.3753 4.7061 11.6969 4.39633C12.0186 4.07465 12.4058 3.82445 12.8586 3.64574C13.3113 3.45511 13.8415 3.3598 14.4491 3.3598C15.295 3.3598 15.9979 3.5266 16.5579 3.86019C17.1179 4.19379 17.5349 4.67631 17.8089 5.30776C18.0948 5.93922 18.2319 6.71959 18.2199 7.6489L18.2021 12.5099H16.6294L16.5758 11.3661C16.3137 11.795 15.9682 12.1286 15.5393 12.3669C15.1103 12.6052 14.598 12.7243 14.0023 12.7243ZM14.1453 11.2768C14.6338 11.2768 15.0567 11.1755 15.4142 10.973C15.7716 10.7585 16.0516 10.4666 16.2541 10.0973C16.4566 9.71601 16.5579 9.28114 16.5579 8.79266V8.50672H14.5921C13.77 8.50672 13.1922 8.63778 12.8586 8.89989C12.525 9.15009 12.3582 9.50155 12.3582 9.95429C12.3582 10.3713 12.5131 10.6989 12.8228 10.9372C13.1445 11.1636 13.5853 11.2768 14.1453 11.2768Z" fill="white"/>
<path d="M20.3578 12.5099V0H22.0556V12.5099H20.3578Z" fill="white"/>
<path d="M28.3563 12.7243C27.4866 12.7243 26.7181 12.5278 26.0509 12.1346C25.3837 11.7295 24.8595 11.1755 24.4782 10.4726C24.097 9.76962 23.9064 8.95946 23.9064 8.04207C23.9064 7.12468 24.097 6.31451 24.4782 5.61158C24.8595 4.90864 25.3837 4.36059 26.0509 3.96742C26.73 3.56234 27.5044 3.3598 28.3742 3.3598C29.1962 3.3598 29.9171 3.5683 30.5366 3.98529C31.1561 4.39037 31.6387 4.97417 31.9842 5.73668C32.3416 6.48727 32.5203 7.37487 32.5203 8.39949H25.6399C25.6994 9.28114 25.9913 9.97216 26.5156 10.4726C27.0517 10.961 27.707 11.2053 28.4814 11.2053C29.0771 11.2053 29.5715 11.0683 29.9647 10.7942C30.3698 10.5083 30.6855 10.1509 30.9119 9.72197L32.3773 10.4011C32.139 10.8657 31.8293 11.2768 31.448 11.6342C31.0668 11.9797 30.614 12.2478 30.0898 12.4384C29.5775 12.629 28.9997 12.7243 28.3563 12.7243ZM25.7471 7.05915H30.6974C30.6617 6.58258 30.5306 6.18346 30.3043 5.86177C30.0898 5.52818 29.8098 5.27202 29.4643 5.09331C29.1307 4.9146 28.7554 4.82524 28.3384 4.82524C27.9333 4.82524 27.5402 4.9146 27.1589 5.09331C26.7777 5.26011 26.456 5.51031 26.1939 5.8439C25.9437 6.1775 25.7948 6.58258 25.7471 7.05915Z" fill="white"/>
<path d="M4.78937 27.046C3.70815 27.046 2.7853 26.8003 2.02081 26.3088C1.25632 25.8065 0.699329 25.1184 0.349847 24.2447C0.0112854 23.371 -0.0815459 22.3662 0.0713527 21.2304C0.202409 20.3567 0.453599 19.554 0.824924 18.8223C1.19625 18.0905 1.67133 17.4516 2.25016 16.9056C2.82899 16.3595 3.48427 15.939 4.216 15.6442C4.94773 15.3384 5.72314 15.1855 6.54224 15.1855C7.25213 15.1855 7.9074 15.3111 8.50808 15.5622C9.10875 15.8134 9.62751 16.1684 10.0644 16.6271C10.5012 17.0749 10.807 17.5827 10.9818 18.1506L9.72035 18.6748C9.57837 18.2271 9.34356 17.8393 9.01592 17.5117C8.6992 17.1731 8.32788 16.911 7.90194 16.7254C7.47601 16.5397 7.01732 16.4469 6.52586 16.4469C5.89242 16.4469 5.29175 16.567 4.72384 16.8073C4.15593 17.0476 3.64263 17.3916 3.18393 17.8393C2.73616 18.2762 2.35937 18.7895 2.05357 19.3793C1.7587 19.969 1.55665 20.6134 1.44744 21.3123C1.31638 22.197 1.37099 22.9778 1.61126 23.655C1.85153 24.3321 2.25016 24.8618 2.80715 25.244C3.36413 25.6263 4.04125 25.8174 4.83851 25.8174C5.36274 25.8174 5.8815 25.7082 6.3948 25.4897C6.91902 25.2713 7.39956 24.9764 7.83642 24.6051C8.28419 24.2229 8.65552 23.7915 8.95039 23.3109L10.0971 23.999C9.70396 24.5996 9.22342 25.1293 8.65552 25.588C8.08761 26.0467 7.46509 26.4071 6.78797 26.6692C6.12177 26.9204 5.45557 27.046 4.78937 27.046Z" fill="#CB825F"/>
<path d="M11.3369 26.8494L12.713 18.6584H14.0236L13.7942 20.0837C14.2092 19.5704 14.6898 19.1991 15.2358 18.9697C15.7819 18.7404 16.3334 18.6257 16.8904 18.6257L16.743 19.8543C16.2624 19.8543 15.7874 19.9362 15.3177 20.1001C14.8481 20.2639 14.4386 20.5315 14.0891 20.9028C13.7505 21.2632 13.5212 21.7492 13.401 22.3608L12.6475 26.8494H11.3369Z" fill="#CB825F"/>
<path d="M20.5738 27.046C19.7547 27.0351 19.0612 26.8385 18.4933 26.4563C17.9363 26.074 17.5322 25.5553 17.281 24.9C17.0407 24.2447 16.9916 23.4911 17.1336 22.6393C17.2756 21.8092 17.5704 21.0775 18.0182 20.4441C18.466 19.8106 19.0175 19.3192 19.6728 18.9697C20.3281 18.6202 21.0434 18.4509 21.8188 18.4619C22.6161 18.4728 23.2659 18.6694 23.7683 19.0516C24.2707 19.4339 24.6147 19.9635 24.8004 20.6407C24.9969 21.3069 25.0188 22.0823 24.8659 22.9669H18.4114C18.3349 23.5567 18.3731 24.0754 18.526 24.5232C18.6899 24.9601 18.952 25.3041 19.3124 25.5553C19.6728 25.7955 20.1151 25.9157 20.6393 25.9157C21.2291 25.9266 21.7588 25.7846 22.2284 25.4897C22.698 25.1949 23.0802 24.8235 23.3751 24.3758L24.4236 25.0147C24.1505 25.4515 23.812 25.8228 23.4079 26.1286C23.0147 26.4344 22.5724 26.6692 22.0809 26.8331C21.6004 26.986 21.098 27.0569 20.5738 27.046ZM18.6571 21.9185H23.67C23.6809 21.2195 23.528 20.6516 23.2113 20.2147C22.9055 19.7779 22.414 19.5595 21.7369 19.5595C21.0489 19.5485 20.4264 19.7615 19.8694 20.1984C19.3233 20.6352 18.9192 21.2086 18.6571 21.9185Z" fill="#CB825F"/>
<path d="M31.9408 26.8494L32.1374 25.3259L33.2514 18.6584H34.562L33.1859 26.8494H31.9408ZM29.1723 27.046C28.5279 27.046 27.9655 26.8931 27.4849 26.5873C27.0044 26.2815 26.6331 25.8611 26.371 25.3259C26.1198 24.7798 26.0051 24.1519 26.027 23.442C26.0488 22.7976 26.1635 22.1806 26.371 21.5908C26.5894 20.9901 26.8897 20.455 27.272 19.9854C27.6652 19.5158 28.1238 19.1444 28.6481 18.8714C29.1723 18.5984 29.7566 18.4619 30.4009 18.4619C31.0453 18.4619 31.5859 18.6148 32.0228 18.9206C32.4596 19.2154 32.7873 19.6304 33.0057 20.1656C33.2241 20.6898 33.3169 21.3069 33.2842 22.0168C33.2733 22.8468 33.1477 23.5785 32.9074 24.2119C32.6671 24.8345 32.3504 25.3587 31.9572 25.7846C31.575 26.1996 31.1436 26.5163 30.6631 26.7348C30.1825 26.9423 29.6856 27.046 29.1723 27.046ZM29.5327 25.8501C30.0132 25.8501 30.4392 25.7409 30.8105 25.5225C31.1927 25.3041 31.5149 25.0092 31.777 24.6379C32.0501 24.2665 32.2576 23.857 32.3995 23.4092C32.5415 22.9614 32.618 22.5082 32.6289 22.0495C32.6398 21.3287 32.4651 20.7499 32.1047 20.313C31.7443 19.8762 31.2528 19.6577 30.6303 19.6577C30.1388 19.6577 29.6965 19.767 29.3033 19.9854C28.9102 20.2038 28.5662 20.4932 28.2713 20.8536C27.9764 21.214 27.7525 21.6181 27.5996 22.0659C27.4467 22.5028 27.3648 22.9505 27.3539 23.4092C27.343 24.13 27.5341 24.7198 27.9273 25.1785C28.3314 25.6263 28.8665 25.8501 29.5327 25.8501Z" fill="#CB825F"/>
<path d="M38.6397 27.046C37.8533 27.046 37.28 26.8385 36.9196 26.4235C36.5701 25.9976 36.4609 25.4024 36.5919 24.6379L37.3946 19.8216H35.9858L36.166 18.6584H37.5912L38.0172 16.1029H39.3277L38.9018 18.6584H41.3591L41.1625 19.8216H38.7052L37.9025 24.556C37.837 24.971 37.8861 25.2877 38.0499 25.5061C38.2247 25.7245 38.5086 25.8338 38.9018 25.8338C39.0328 25.8338 39.1694 25.8065 39.3113 25.7518C39.4642 25.6972 39.6608 25.6099 39.9011 25.4897L40.2779 26.5709C39.9284 26.7566 39.6226 26.8822 39.3605 26.9477C39.1093 27.0133 38.869 27.046 38.6397 27.046Z" fill="#CB825F"/>
<path d="M45.4347 27.046C44.6156 27.0351 43.9221 26.8385 43.3542 26.4563C42.7972 26.074 42.3932 25.5553 42.142 24.9C41.9017 24.2447 41.8526 23.4911 41.9945 22.6393C42.1365 21.8092 42.4314 21.0775 42.8792 20.4441C43.3269 19.8106 43.8785 19.3192 44.5337 18.9697C45.189 18.6202 45.9044 18.4509 46.6798 18.4619C47.477 18.4728 48.1269 18.6694 48.6292 19.0516C49.1316 19.4339 49.4756 19.9635 49.6613 20.6407C49.8579 21.3069 49.8797 22.0823 49.7268 22.9669H43.2723C43.1959 23.5567 43.2341 24.0754 43.387 24.5232C43.5508 24.9601 43.8129 25.3041 44.1733 25.5553C44.5337 25.7955 44.9761 25.9157 45.5003 25.9157C46.09 25.9266 46.6197 25.7846 47.0893 25.4897C47.5589 25.1949 47.9412 24.8235 48.2361 24.3758L49.2845 25.0147C49.0115 25.4515 48.6729 25.8228 48.2688 26.1286C47.8757 26.4344 47.4333 26.6692 46.9419 26.8331C46.4614 26.986 45.959 27.0569 45.4347 27.046ZM43.5181 21.9185H48.5309C48.5419 21.2195 48.389 20.6516 48.0722 20.2147C47.7665 19.7779 47.275 19.5595 46.5979 19.5595C45.9098 19.5485 45.2873 19.7615 44.7303 20.1984C44.1843 20.6352 43.7802 21.2086 43.5181 21.9185Z" fill="#CB825F"/>
<path d="M53.5745 27.046C52.963 27.046 52.4387 26.9532 52.0019 26.7675C51.5759 26.5819 51.2428 26.3416 51.0026 26.0467C50.7623 25.7518 50.6094 25.4406 50.5439 25.1129L51.7398 24.7362C51.849 25.1184 52.0674 25.4187 52.395 25.6372C52.7336 25.8447 53.1049 25.9484 53.509 25.9484C53.8476 25.9484 54.1752 25.8938 54.4919 25.7846C54.8196 25.6645 55.0872 25.4952 55.2947 25.2768C55.5131 25.0583 55.6223 24.7853 55.6223 24.4577C55.6223 24.1737 55.5076 23.9444 55.2783 23.7696C55.0489 23.5949 54.7104 23.442 54.2626 23.3109L53.509 23.098C52.8756 22.9232 52.3896 22.6666 52.051 22.328C51.7125 21.9785 51.5432 21.5799 51.5432 21.1321C51.5432 20.597 51.6852 20.1274 51.9691 19.7233C52.264 19.3192 52.6681 19.0079 53.1814 18.7895C53.7056 18.5711 54.3117 18.4619 54.9998 18.4619C55.7534 18.4619 56.354 18.6202 56.8018 18.9369C57.2605 19.2537 57.5499 19.6796 57.67 20.2147L56.5069 20.6079C56.3977 20.2257 56.2066 19.9581 55.9336 19.8052C55.6714 19.6523 55.2947 19.5758 54.8032 19.5758C54.2681 19.5758 53.8094 19.7124 53.4271 19.9854C53.0558 20.2475 52.8701 20.5806 52.8701 20.9847C52.8701 21.1704 52.9739 21.356 53.1814 21.5417C53.3889 21.7164 53.7111 21.8639 54.1479 21.984L54.8196 22.1642C55.5841 22.3608 56.1356 22.6557 56.4742 23.0488C56.8236 23.442 56.9984 23.8843 56.9984 24.3758C56.9984 24.9109 56.84 25.3805 56.5233 25.7846C56.2066 26.1778 55.7916 26.489 55.2783 26.7184C54.765 26.9368 54.1971 27.046 53.5745 27.046Z" fill="#CB825F"/>
<path d="M59.0253 27.0788C58.8505 27.0788 58.6922 27.0296 58.5502 26.9314C58.4191 26.844 58.3208 26.7238 58.2553 26.5709C58.1898 26.418 58.1679 26.2542 58.1898 26.0795C58.2335 25.8611 58.3481 25.6699 58.5338 25.5061C58.7195 25.3423 58.927 25.2604 59.1563 25.2604C59.342 25.2604 59.5003 25.3095 59.6314 25.4078C59.7625 25.4952 59.8608 25.6153 59.9263 25.7682C59.9918 25.9102 60.0136 26.074 59.9918 26.2597C59.9481 26.4781 59.8334 26.6692 59.6478 26.8331C59.4621 26.9969 59.2546 27.0788 59.0253 27.0788Z" fill="white"/>
</svg>
